<svg width="32" height="32" viewBox="0 0 32 32" fill="none" xmlns="http://www.w3.org/2000/svg">
<path d="M6.39886 21.952L16.3949 12.208L26.3909 21.952C26.5695 22.1264 26.8092 22.2241 27.0589 22.2241C27.3085 22.2241 27.5483 22.1264 27.7269 21.952C27.8133 21.8672 27.882 21.7661 27.9289 21.6545C27.9758 21.5429 28 21.423 28 21.302C28 21.1809 27.9758 21.0611 27.9289 20.9494C27.882 20.8378 27.8133 20.7367 27.7269 20.652L17.0929 10.284C16.9061 10.1019 16.6557 10.0001 16.3949 10.0001C16.1341 10.0001 15.8836 10.1019 15.6969 10.284L5.06286 20.65C4.97578 20.7348 4.90656 20.8361 4.8593 20.9481C4.81203 21.0601 4.78769 21.1804 4.78769 21.302C4.78769 21.4235 4.81203 21.5438 4.8593 21.6558C4.90656 21.7678 4.97578 21.8692 5.06286 21.954C5.24146 22.1284 5.48121 22.2261 5.73087 22.2261C5.98052 22.2261 6.22027 22.1284 6.39886 21.954V21.952Z" fill="#BEBDC5"/>
</svg>
