<svg width="32" height="32" viewBox="0 0 32 32" fill="none" xmlns="http://www.w3.org/2000/svg">
<path d="M25.6011 10.048L15.6051 19.792L5.60913 10.048C5.43054 9.87359 5.19079 9.77593 4.94113 9.77593C4.69148 9.77593 4.45173 9.87359 4.27313 10.048C4.18666 10.1328 4.11796 10.2339 4.07106 10.3455C4.02416 10.4571 4 10.577 4 10.698C4 10.8191 4.02416 10.9389 4.07106 11.0506C4.11796 11.1622 4.18666 11.2633 4.27313 11.348L14.9071 21.716C15.0939 21.8981 15.3443 21.9999 15.6051 21.9999C15.8659 21.9999 16.1164 21.8981 16.3031 21.716L26.9371 11.35C27.0242 11.2652 27.0934 11.1639 27.1407 11.0519C27.188 10.9399 27.2123 10.8196 27.2123 10.698C27.2123 10.5765 27.188 10.4562 27.1407 10.3442C27.0934 10.2322 27.0242 10.1308 26.9371 10.046C26.7585 9.87159 26.5188 9.77393 26.2691 9.77393C26.0195 9.77393 25.7797 9.87159 25.6011 10.046V10.048Z" fill="#BEBDC5"/>
</svg>
