<svg width="22" height="22" viewBox="0 0 22 22" fill="none" xmlns="http://www.w3.org/2000/svg">
<path d="M20.9732 18.44L19.3756 8.44H19.3767C19.293 7.91529 19.017 7.4368 18.5987 7.09114C18.1804 6.74548 17.6474 6.55549 17.0963 6.55556H4.90604C4.35471 6.55523 3.82148 6.7451 3.40294 7.09078C2.9844 7.43646 2.70821 7.9151 2.62441 8.44L1.02681 18.44C0.976246 18.7567 0.997379 19.0802 1.08876 19.3882C1.18013 19.6963 1.33959 19.9817 1.5562 20.2249C1.77281 20.468 2.04145 20.6632 2.3437 20.797C2.64594 20.9308 2.97465 21 3.30728 21H18.695C19.0275 20.9997 19.3559 20.9302 19.6579 20.7963C19.9598 20.6624 20.2282 20.4672 20.4445 20.224C20.6609 19.9809 20.8202 19.6956 20.9114 19.3877C21.0026 19.0798 21.0237 18.7565 20.9732 18.44Z" fill="#27213D"/>
<path d="M13.3082 3.22222C13.3082 2.63285 13.0651 2.06762 12.6325 1.65087C12.1998 1.23413 11.613 1 11.0012 1C10.3893 1 9.8025 1.23413 9.36985 1.65087C8.93721 2.06762 8.69415 2.63285 8.69415 3.22222M19.3756 8.44L20.9732 18.44C21.0237 18.7565 21.0026 19.0798 20.9114 19.3877C20.8202 19.6956 20.6609 19.9809 20.4445 20.224C20.2282 20.4672 19.9598 20.6624 19.6579 20.7963C19.3559 20.9302 19.0275 20.9997 18.695 21H3.30728C2.97465 21 2.64594 20.9308 2.3437 20.797C2.04145 20.6632 1.77281 20.468 1.5562 20.2249C1.33959 19.9817 1.18013 19.6963 1.08876 19.3882C0.997379 19.0802 0.976246 18.7567 1.02681 18.44L2.62441 8.44C2.70821 7.9151 2.98439 7.43646 3.40294 7.09078C3.82148 6.7451 4.35471 6.55523 4.90604 6.55556H17.0963C17.6474 6.55549 18.1804 6.74548 18.5987 7.09114C19.017 7.4368 19.293 7.91529 19.3767 8.44H19.3756Z" stroke="#27213D" stroke-linecap="round" stroke-linejoin="round"/>
</svg>
