<svg width="28" height="28" viewBox="0 0 28 28" fill="none" xmlns="http://www.w3.org/2000/svg">
<path d="M16.3082 6.22222C16.3082 5.63285 16.0651 5.06762 15.6325 4.65087C15.1998 4.23413 14.613 4 14.0012 4C13.3893 4 12.8025 4.23413 12.3699 4.65087C11.9372 5.06762 11.6941 5.63285 11.6941 6.22222M22.3756 11.44L23.9732 21.44C24.0237 21.7565 24.0026 22.0798 23.9114 22.3877C23.8202 22.6956 23.6609 22.9809 23.4445 23.224C23.2282 23.4672 22.9598 23.6624 22.6579 23.7963C22.3559 23.9302 22.0275 23.9997 21.695 24H6.30728C5.97465 24 5.64594 23.9308 5.3437 23.797C5.04145 23.6632 4.77281 23.468 4.5562 23.2249C4.33959 22.9817 4.18013 22.6963 4.08876 22.3882C3.99738 22.0802 3.97625 21.7567 4.02681 21.44L5.62441 11.44C5.70821 10.9151 5.98439 10.4365 6.40294 10.0908C6.82148 9.7451 7.35471 9.55523 7.90604 9.55556H20.0963C20.6474 9.55549 21.1804 9.74548 21.5987 10.0911C22.017 10.4368 22.293 10.9153 22.3767 11.44H22.3756Z" stroke="#27213D" stroke-linecap="round" stroke-linejoin="round"/>
<path d="M14 21V17M14 17V13M14 17H18M14 17H10" stroke="#27213D" stroke-linecap="round"/>
</svg>
