<svg width="27" height="20" viewBox="0 0 27 20" fill="none" xmlns="http://www.w3.org/2000/svg">
<path d="M26.3451 0.680631C26.3442 0.661948 26.3424 0.643326 26.3396 0.624846C26.3367 0.608507 26.3322 0.592987 26.328 0.577246C26.3238 0.560775 26.3189 0.54453 26.3132 0.528576C26.3067 0.512527 26.2995 0.496828 26.2915 0.481542C26.2843 0.46725 26.2776 0.45299 26.2691 0.439296C26.2588 0.423478 26.2477 0.40825 26.2358 0.393679C26.2288 0.384769 26.2235 0.374982 26.2159 0.366447C26.2135 0.363739 26.2105 0.361914 26.208 0.35927C26.1947 0.345644 26.1807 0.332811 26.1659 0.320831C26.1548 0.311323 26.1442 0.301029 26.1326 0.292655C26.1181 0.282967 26.1031 0.274057 26.0878 0.265963C26.0743 0.258313 26.0614 0.249813 26.0474 0.243517C26.0323 0.236717 26.0163 0.232309 26.0005 0.227021C25.9851 0.221889 25.9701 0.21597 25.9544 0.212382C25.9397 0.209014 25.9243 0.207911 25.9091 0.205897C25.8913 0.203043 25.8733 0.201192 25.8553 0.200352C25.8516 0.200258 25.8482 0.199219 25.8444 0.199219H1.65244C1.64875 0.199219 1.64542 0.200226 1.64173 0.20032C1.623 0.201189 1.60433 0.203112 1.5858 0.206081C1.57141 0.208064 1.55682 0.209073 1.54286 0.212252C1.52608 0.216624 1.50953 0.221878 1.49327 0.227992C1.47875 0.232967 1.46386 0.236996 1.44996 0.243261C1.43495 0.249998 1.42098 0.259097 1.40652 0.267374C1.39243 0.275528 1.37792 0.282895 1.36463 0.292402C1.35251 0.301091 1.34149 0.311732 1.32999 0.321648C1.31563 0.333409 1.30189 0.345946 1.28883 0.359205C1.28637 0.361881 1.28341 0.363707 1.28095 0.366445C1.27332 0.374978 1.26803 0.384767 1.26108 0.393678C1.24918 0.408237 1.23807 0.423455 1.2278 0.439262C1.21931 0.453019 1.21248 0.467312 1.20534 0.481604C1.19766 0.49703 1.1899 0.512267 1.18369 0.528541C1.17766 0.544565 1.17335 0.560874 1.16892 0.577307C1.16468 0.593047 1.16012 0.608536 1.15729 0.624843C1.15448 0.643323 1.15266 0.661946 1.15182 0.680628C1.15108 0.692215 1.14844 0.703234 1.14844 0.715008V18.2519C1.14889 18.6621 1.30833 19.0554 1.59179 19.3455C1.87524 19.6356 2.25957 19.7988 2.66044 19.7992H24.8364C25.2373 19.7988 25.6216 19.6356 25.9051 19.3455C26.1885 19.0554 26.348 18.6621 26.3484 18.2519V0.715008C26.3484 0.703234 26.3458 0.692215 26.3451 0.680631ZM24.5487 1.2308L13.7484 11.3627L2.94818 1.2308H24.5487ZM24.8364 18.7676H2.66044C2.52681 18.7675 2.3987 18.7131 2.30421 18.6164C2.20973 18.5197 2.15658 18.3886 2.15644 18.2519V1.88756L13.4078 12.4426C13.5008 12.5298 13.6223 12.5782 13.7484 12.5782C13.8745 12.5782 13.9961 12.5298 14.089 12.4426L25.3404 1.88756V18.2519C25.3403 18.3886 25.2871 18.5197 25.1927 18.6164C25.0982 18.7131 24.9701 18.7675 24.8364 18.7676Z" fill="#202020" stroke="#202020" stroke-width="0.4"/>
</svg>
