<svg width="18" height="18" viewBox="0 0 18 18" fill="none" xmlns="http://www.w3.org/2000/svg">
<path d="M9.00033 17.3333C10.0949 17.3347 11.1789 17.1198 12.1902 16.701C13.2014 16.2821 14.1199 15.6675 14.8928 14.8925C15.6678 14.1195 16.2824 13.2011 16.7013 12.1898C17.1202 11.1786 17.3351 10.0946 17.3337 9C17.3351 7.90544 17.1201 6.82141 16.7013 5.81018C16.2824 4.79894 15.6678 3.88046 14.8928 3.1075C14.1199 2.33251 13.2014 1.71791 12.1902 1.29903C11.1789 0.880152 10.0949 0.665245 9.00033 0.666663C7.90578 0.665268 6.82174 0.880185 5.81051 1.29906C4.79928 1.71794 3.88079 2.33253 3.10783 3.1075C2.33286 3.88046 1.71828 4.79894 1.2994 5.81018C0.880521 6.82141 0.665604 7.90544 0.666999 9C0.665581 10.0946 0.880488 11.1786 1.29937 12.1898C1.71825 13.2011 2.33284 14.1195 3.10783 14.8925C3.88079 15.6675 4.79928 16.2821 5.81051 16.7009C6.82174 17.1198 7.90578 17.3347 9.00033 17.3333V17.3333Z" stroke="#BEBDC5" stroke-width="1.1" stroke-linejoin="round"/>
<path fill-rule="evenodd" clip-rule="evenodd" d="M9 6.08333C9.33152 6.08333 9.64946 5.95163 9.88388 5.71721C10.1183 5.48279 10.25 5.16485 10.25 4.83333C10.25 4.50181 10.1183 4.18386 9.88388 3.94944C9.64946 3.71502 9.33152 3.58333 9 3.58333C8.66848 3.58333 8.35054 3.71502 8.11612 3.94944C7.8817 4.18386 7.75 4.50181 7.75 4.83333C7.75 5.16485 7.8817 5.48279 8.11612 5.71721C8.35054 5.95163 8.66848 6.08333 9 6.08333Z" fill="#BEBDC5"/>
<path d="M9 7.75V14.4167" stroke="#BEBDC5" stroke-width="1.1" stroke-linecap="round" stroke-linejoin="round"/>
</svg>
