<svg width="9" height="16" viewBox="0 0 9 16" fill="none" xmlns="http://www.w3.org/2000/svg">
<path d="M8.79822 14.8894L1.62532 7.99929L8.79822 1.10916C8.92664 0.986054 8.99853 0.820797 8.99853 0.648713C8.99853 0.476628 8.92664 0.311372 8.79822 0.188268C8.73585 0.128661 8.6614 0.0813067 8.57924 0.0489791C8.49708 0.0166514 8.40885 0 8.31973 0C8.23061 0 8.14239 0.0166514 8.06023 0.0489791C7.97806 0.0813067 7.90362 0.128661 7.84125 0.188268L0.208991 7.51817C0.0749941 7.64689 0 7.81954 0 7.99929C0 8.17905 0.0749941 8.3517 0.208991 8.48042L7.83977 15.8103C7.90219 15.8703 7.97682 15.9181 8.05925 15.9506C8.14169 15.9832 8.23026 16 8.31973 16C8.40921 16 8.49778 15.9832 8.58021 15.9506C8.66265 15.9181 8.73728 15.8703 8.79969 15.8103C8.92811 15.6872 9 15.522 9 15.3499C9 15.1778 8.92811 15.0125 8.79969 14.8894H8.79822Z" fill="#636363"/>
</svg>
