<svg width="112" height="52" viewBox="0 0 112 52" fill="none" xmlns="http://www.w3.org/2000/svg">
<path d="M35.9508 52C35.6884 52 35.474 51.9663 35.311 51.8977V51.3462C35.5024 51.4008 35.6912 51.4289 35.8756 51.4289C36.0925 51.4289 36.2515 51.37 36.3521 51.254C36.4528 51.1377 36.5039 50.9613 36.5039 50.7233V45.4906H37.1934V50.6715C37.1934 51.5575 36.7792 52 35.9508 52V52ZM36.4458 44.2699C36.4458 44.1144 36.4841 44.0012 36.5621 43.9283C36.6402 43.8555 36.7366 43.8192 36.8528 43.8192C36.9635 43.8192 37.0599 43.8555 37.1394 43.9297C37.2203 44.0039 37.2599 44.1174 37.2599 44.2699C37.2599 44.4239 37.2203 44.5386 37.1394 44.6128C37.0599 44.6885 36.9635 44.7263 36.8528 44.7263C36.7366 44.7263 36.6402 44.6885 36.5621 44.6128C36.4841 44.5386 36.4458 44.4239 36.4458 44.2699ZM40.5807 50.0682C39.9068 50.0682 39.3764 49.8651 38.9877 49.4607C38.5977 49.0561 38.4034 48.4933 38.4034 47.774C38.4034 47.0486 38.5836 46.4734 38.9451 46.0464C39.3068 45.6195 39.7921 45.4067 40.4018 45.4067C40.9722 45.4067 41.4246 45.5914 41.7565 45.9624C42.0886 46.3333 42.256 46.8219 42.256 47.428V47.8591H39.1182C39.1323 48.387 39.2671 48.7874 39.5226 49.0616C39.7792 49.3345 40.1396 49.4719 40.6061 49.4719C41.0956 49.4719 41.5807 49.3712 42.0602 49.1681V49.7756C41.8161 49.8807 41.5849 49.9549 41.368 50.001C41.1509 50.0457 40.8885 50.0682 40.5807 50.0682ZM40.3935 45.9777C40.0275 45.9777 39.7366 46.0954 39.5196 46.3307C39.3012 46.5644 39.1737 46.889 39.1353 47.3048H41.5154C41.5154 46.8765 41.4189 46.5476 41.2247 46.3193C41.0302 46.0912 40.7538 45.9777 40.3935 45.9777ZM47.1511 49.9842L46.3154 47.3482C46.263 47.1872 46.1652 46.8205 46.0204 46.2494H45.9877C45.8772 46.7282 45.7794 47.0962 45.6973 47.3565L44.8362 49.9842H44.039L42.7949 45.4906H43.5184C43.8119 46.6188 44.0359 47.4798 44.1908 48.0692C44.3439 48.66 44.4319 49.0576 44.4547 49.2633H44.4873C44.5184 49.1064 44.5666 48.9047 44.6346 48.6585C44.7027 48.4108 44.761 48.2146 44.812 48.0692L45.6475 45.4906H46.395L47.2092 48.0692C47.3651 48.5395 47.4702 48.9343 47.5254 49.2547H47.5595C47.5694 49.1554 47.5993 49.0043 47.6488 48.7998C47.6973 48.5941 47.9851 47.4911 48.5155 45.4906H49.2304L47.971 49.9842H47.1511V49.9842ZM51.9753 50.0682C51.3014 50.0682 50.7709 49.8651 50.3822 49.4607C49.9924 49.0561 49.7979 48.4933 49.7979 47.774C49.7979 47.0486 49.9783 46.4734 50.3397 46.0464C50.7015 45.6195 51.1867 45.4067 51.7965 45.4067C52.3667 45.4067 52.8193 45.5914 53.1511 45.9624C53.4832 46.3333 53.6506 46.8219 53.6506 47.428V47.8591H50.5128C50.5269 48.387 50.6618 48.7874 50.9172 49.0616C51.1739 49.3345 51.5341 49.4719 52.0008 49.4719C52.4901 49.4719 52.9753 49.3712 53.4548 49.1681V49.7756C53.2108 49.8807 52.9795 49.9549 52.7627 50.001C52.5455 50.0457 52.2832 50.0682 51.9753 50.0682ZM51.7881 45.9777C51.4222 45.9777 51.1313 46.0954 50.9141 46.3307C50.6959 46.5644 50.5682 46.889 50.5299 47.3048H52.9101C52.9101 46.8765 52.8136 46.5476 52.6192 46.3193C52.4248 46.0912 52.1483 45.9777 51.7881 45.9777ZM55.5158 49.9842H54.8264V43.6007H55.5158V49.9842ZM59.0566 45.4067C59.2578 45.4067 59.4393 45.4236 59.5998 45.4557L59.5045 46.0898C59.3159 46.0492 59.1499 46.0283 59.0053 46.0283C58.6378 46.0283 58.323 46.1752 58.0606 46.4705C57.7996 46.766 57.6693 47.134 57.6693 47.5735V49.9842H56.9783V45.4906H57.5485L57.6268 46.3206H57.6606C57.8295 46.0283 58.0323 45.8028 58.2706 45.6446C58.5087 45.4865 58.7699 45.4067 59.0566 45.4067V45.4067ZM59.7302 45.4906H60.4692L61.4678 48.0524C61.6863 48.6376 61.8224 49.0602 61.8751 49.3192H61.9075C61.9445 49.1793 62.0197 48.9414 62.1344 48.6038C62.2494 48.2666 62.6253 47.2292 63.2635 45.4906H64.0027L62.0452 50.6058C61.8508 51.1124 61.6253 51.4709 61.3657 51.6823C61.106 51.8935 60.7885 52 60.4111 52C60.2012 52 59.9927 51.9763 59.7885 51.9313V51.3881C59.94 51.4203 60.1104 51.4372 60.2991 51.4372C60.7727 51.4372 61.1116 51.1741 61.3133 50.6504L61.5672 50.0093L59.7302 45.4906V45.4906ZM69.0055 46.0197H67.8468V49.9842H67.1558V46.0197H66.3418V45.7118L67.1558 45.4654V45.2148C67.1558 44.1103 67.6453 43.5588 68.6239 43.5588C68.8651 43.5588 69.1475 43.6064 69.4709 43.703L69.2921 44.249C69.0267 44.1636 68.7998 44.1216 68.6111 44.1216C68.3502 44.1216 68.1588 44.207 68.034 44.3778C67.9091 44.5483 67.8468 44.8229 67.8468 45.1995V45.4906H69.0055V46.0197V46.0197ZM72.6369 49.9842L72.4993 49.3445H72.4652C72.2383 49.6259 72.0128 49.8176 71.7871 49.9183C71.5602 50.0179 71.2795 50.0682 70.9418 50.0682C70.4892 50.0682 70.136 49.9534 69.8795 49.7238C69.6239 49.493 69.4948 49.1667 69.4948 48.7411C69.4948 47.8327 70.2313 47.3565 71.7006 47.3131L72.4736 47.288V47.0096C72.4736 46.6581 72.3973 46.3977 72.2439 46.2298C72.0894 46.0617 71.844 45.9777 71.5063 45.9777C71.1262 45.9777 70.698 46.0924 70.2184 46.3221L70.007 45.8013C70.2313 45.681 70.4765 45.5858 70.7431 45.5172C71.0112 45.4487 71.2795 45.415 71.5475 45.415C72.0909 45.415 72.4922 45.5341 72.7546 45.7719C73.017 46.01 73.1475 46.3907 73.1475 46.9156V49.9842H72.6369V49.9842ZM71.078 49.5053C71.5078 49.5053 71.8454 49.3892 72.0894 49.1569C72.3347 48.9245 72.4581 48.5998 72.4581 48.1812V47.7751L71.7674 47.8046C71.2199 47.8227 70.824 47.9069 70.5814 48.0565C70.3389 48.2049 70.2184 48.4374 70.2184 48.7508C70.2184 48.9973 70.2936 49.185 70.4455 49.3123C70.5957 49.441 70.807 49.5053 71.078 49.5053V49.5053ZM76.3902 50.0682C75.7306 50.0682 75.22 49.868 74.8583 49.4676C74.4967 49.0658 74.3164 48.4989 74.3164 47.7668C74.3164 47.0138 74.4993 46.4327 74.8668 46.0227C75.2341 45.6124 75.7561 45.4067 76.4356 45.4067C76.654 45.4067 76.8726 45.4303 77.0925 45.4767C77.3107 45.5229 77.4824 45.5775 77.6072 45.6417L77.3946 46.2198C77.2428 46.1598 77.0768 46.1107 76.8966 46.0703C76.7166 46.0309 76.5576 46.0114 76.4186 46.0114C75.4937 46.0114 75.0314 46.5938 75.0314 47.7582C75.0314 48.31 75.1433 48.7342 75.3688 49.0295C75.5959 49.3248 75.9292 49.4719 76.3733 49.4719C76.7519 49.4719 77.1421 49.3907 77.5405 49.2296V49.8343C77.2357 49.9898 76.8526 50.0682 76.3902 50.0682V50.0682ZM80.0922 49.5053C80.2143 49.5053 80.3321 49.4971 80.4456 49.4788C80.5589 49.4607 80.6483 49.4424 80.7149 49.4229V49.9449C80.6397 49.98 80.5307 50.0093 80.3845 50.0332C80.2399 50.0569 80.1078 50.0682 79.9916 50.0682C79.1108 50.0682 78.6711 49.6103 78.6711 48.6934V46.0197H78.0185V45.6923L78.6711 45.4078L78.962 44.449H79.3603V45.4906H80.6825V46.0197H79.3603V48.6641C79.3603 48.9358 79.4256 49.143 79.5561 49.2885C79.6867 49.4326 79.8653 49.5053 80.0922 49.5053V49.5053ZM85.5562 47.7331C85.5562 48.4667 85.369 49.0393 84.9959 49.451C84.6215 49.8624 84.1052 50.0682 83.4454 50.0682C83.0384 50.0682 82.6765 49.9744 82.3603 49.7853C82.0455 49.5964 81.8014 49.3248 81.6298 48.9721C81.4567 48.6193 81.3717 48.2063 81.3717 47.7331C81.3717 46.9996 81.5576 46.4285 81.9291 46.0197C82.2994 45.6109 82.8158 45.4067 83.4738 45.4067C84.1121 45.4067 84.617 45.615 84.9932 46.0339C85.369 46.4525 85.5562 47.0193 85.5562 47.7331V47.7331ZM82.0866 47.7331C82.0866 48.3072 82.2028 48.7451 82.4355 49.0463C82.6682 49.3472 83.0099 49.4971 83.4625 49.4971C83.9135 49.4971 84.2568 49.3472 84.491 49.0477C84.7249 48.7481 84.8413 48.31 84.8413 47.7331C84.8413 47.1621 84.7249 46.7282 84.491 46.4314C84.2568 46.1346 83.9107 45.9863 83.4541 45.9863C83.0015 45.9863 82.661 46.1318 82.4313 46.4244C82.2016 46.717 82.0866 47.1535 82.0866 47.7331V47.7331ZM88.8429 45.4067C89.0442 45.4067 89.2257 45.4236 89.3861 45.4557L89.2909 46.0898C89.1023 46.0492 88.9363 46.0283 88.7917 46.0283C88.4242 46.0283 88.1094 46.1752 87.847 46.4705C87.586 46.766 87.4555 47.134 87.4555 47.5735V49.9842H86.7647V45.4906H87.3349L87.4131 46.3206H87.447C87.6159 46.0283 87.8186 45.8028 88.057 45.6446C88.2951 45.4865 88.5563 45.4067 88.8429 45.4067V45.4067ZM89.5164 45.4906H90.2556L91.2542 48.0524C91.4727 48.6376 91.6088 49.0602 91.6615 49.3192H91.6939C91.7309 49.1793 91.8061 48.9414 91.9208 48.6038C92.0358 48.2666 92.4117 47.2292 93.0499 45.4906H93.7891L91.8315 50.6058C91.6372 51.1124 91.4117 51.4709 91.152 51.6823C90.8923 51.8935 90.5749 52 90.1975 52C89.9876 52 89.7791 51.9763 89.5749 51.9313V51.3881C89.7264 51.4203 89.8968 51.4372 90.0854 51.4372C90.559 51.4372 90.898 51.1741 91.0995 50.6504L91.3535 50.0093L89.5164 45.4906V45.4906Z" fill="#27213D"/>
<path d="M27.3865 39.0739V38.5029H29.3518V23.4816H27.3865V22.9105H39.1023V27.3284H38.5237C38.5237 26.5597 38.4218 25.8845 38.2142 25.3063C38.0068 24.7279 37.6575 24.2788 37.166 23.9592C36.6747 23.6395 36.0014 23.4816 35.1497 23.4816H31.4375V38.5029H34.9205C35.9177 38.5029 36.693 38.334 37.2461 37.9999C37.7993 37.6659 38.1888 37.1809 38.4109 36.5452C38.633 35.9094 38.742 35.1373 38.742 34.2249H39.3209V39.0739H27.3865V39.0739ZM34.8114 33.072C34.8114 32.5905 34.7238 32.1954 34.5493 31.8901C34.3745 31.5847 34.1344 31.3622 33.825 31.2184C33.5156 31.0748 33.1517 31.003 32.7367 31.003H31.0443V30.432H32.7367C33.1517 30.432 33.5156 30.3672 33.825 30.2379C34.1344 30.1085 34.3745 29.8968 34.5493 29.6056C34.7238 29.3147 34.8114 28.9303 34.8114 28.4491H35.3901V33.072H34.8114ZM48.1264 39.2895C46.6487 39.2895 45.3531 38.9302 44.2394 38.2155C43.1256 37.5006 42.2593 36.52 41.6406 35.2701C41.022 34.0201 40.7125 32.5941 40.7125 30.9922C40.7125 29.3901 41.022 27.9642 41.6406 26.7142C42.2593 25.4642 43.1256 24.4799 44.2394 23.7652C45.3531 23.0507 46.6487 22.6947 48.1264 22.6947C48.8471 22.6947 49.5387 22.8171 50.2009 23.0613C50.8634 23.3057 51.4494 23.6468 51.9588 24.0849L53.0179 22.9105H53.5314V27.3284H52.9415C52.8906 26.5023 52.6467 25.7913 52.2101 25.1947C51.7733 24.5986 51.2166 24.1425 50.536 23.8264C49.8552 23.5102 49.1237 23.3522 48.3448 23.3522C47.3984 23.3522 46.5977 23.5641 45.9427 23.988C45.2877 24.4119 44.7599 24.983 44.3596 25.7014C43.9591 26.4197 43.6679 27.235 43.4859 28.1511C43.3038 29.0671 43.213 30.0151 43.213 30.9922C43.213 31.9691 43.3038 32.9139 43.4859 33.8297C43.6679 34.7456 43.9591 35.5647 44.3596 36.2832C44.7599 37.0015 45.2877 37.5727 45.9427 37.9966C46.5977 38.4202 47.3984 38.6322 48.3448 38.6322C49.0508 38.6322 49.6915 38.5317 50.2629 38.3304C50.8342 38.1293 51.3293 37.8492 51.7513 37.4899C52.1737 37.1307 52.5049 36.7071 52.7451 36.2221C52.9853 35.7372 53.1273 35.2164 53.171 34.6558H53.7496V39.0739H53.2366L52.2648 37.8239C51.755 38.2767 51.1473 38.6322 50.4376 38.8943C49.7279 39.1567 48.9563 39.2895 48.1264 39.2895V39.2895ZM55.185 39.0739V38.5029H57.1503V23.4816H55.185V22.9105H61.1903V23.4816H59.236V38.5029H62.6099C63.4687 38.5029 64.1529 38.4094 64.6626 38.2228C65.172 38.0358 65.5542 37.7593 65.809 37.393C66.0637 37.0267 66.2311 36.5777 66.3112 36.0459C66.3913 35.5144 66.4313 34.9074 66.4313 34.2249H67.0101V39.0739H55.185V39.0739ZM72.1469 34.0847V33.5245H79.266V34.0847H72.1469ZM76.3178 22.5979L81.9082 38.5029H83.6661V39.0739H77.3331V38.5029H79.5169L75.2696 25.5396L70.6945 38.5029H72.8892V39.0739H68.0849V38.5029H70.0395L75.7283 22.5979H76.3178V22.5979ZM88.5957 31.0137V30.6796H91.8713C92.57 30.6796 93.1633 30.5432 93.6512 30.2738C94.1388 30.0044 94.5137 29.6022 94.7721 29.0671C95.0305 28.5318 95.1579 27.8744 95.1579 27.0914C95.1579 26.3084 95.0305 25.6475 94.7721 25.1087C94.5137 24.5697 94.1388 24.1639 93.6512 23.891C93.1633 23.6181 92.57 23.4816 91.8713 23.4816H84.6648V22.9105H91.8713C92.9705 22.9105 93.9313 23.0613 94.7504 23.3667C95.5691 23.6719 96.2024 24.1352 96.6537 24.7567C97.105 25.378 97.3307 26.1575 97.3307 27.0914C97.3307 28.0252 97.1196 28.7795 96.6974 29.3542C96.2754 29.9289 95.6602 30.3492 94.8485 30.615C94.037 30.8807 93.0434 31.0137 91.8713 31.0137H88.5957V31.0137ZM84.6648 39.0739V38.5029H91.5548V39.0739H84.6648ZM87.067 38.7616V23.2983H89.1417V38.7616H87.067ZM97.2215 39.1818C96.5882 39.1818 96.0968 39.0703 95.7439 38.8478C95.3908 38.625 95.1325 38.3232 94.9722 37.946C94.8121 37.5689 94.7138 37.145 94.674 36.6746C94.6339 36.204 94.6084 35.7191 94.601 35.2164C94.5939 34.7134 94.5646 34.2249 94.5137 33.7543C94.4628 33.2839 94.3501 32.8599 94.1752 32.4828C94.0006 32.1056 93.7239 31.8075 93.3419 31.5847C92.9595 31.3622 92.4319 31.2507 91.7622 31.2507H88.5957V30.9491H92.1989C93.2253 30.9491 94.0441 31.0854 94.6557 31.3622C95.2672 31.6387 95.7294 32.005 96.0387 32.4578C96.3481 32.9101 96.5593 33.4058 96.6757 33.9447C96.7923 34.4835 96.8577 35.0224 96.8721 35.5647C96.8867 36.1071 96.9087 36.6064 96.9341 37.0589C96.9597 37.5116 97.0395 37.8742 97.1742 38.1474C97.309 38.4202 97.5528 38.5568 97.9094 38.5568C98.1353 38.5568 98.3352 38.5318 98.5063 38.4848C98.6775 38.4383 98.834 38.3807 98.9794 38.3089L99.1869 38.8478C99.0124 38.941 98.7464 39.02 98.3862 39.0847C98.0259 39.1493 97.6364 39.1818 97.2215 39.1818V39.1818ZM100.065 39.0739V38.5029H102.031V23.4816H100.065V22.9105H111.781V27.3284H111.203C111.203 26.5597 111.101 25.8845 110.893 25.3063C110.686 24.7279 110.336 24.2788 109.845 23.9592C109.354 23.6395 108.68 23.4816 107.829 23.4816H104.116V38.5029H107.599C108.597 38.5029 109.372 38.334 109.925 37.9999C110.478 37.6659 110.868 37.1809 111.09 36.5452C111.312 35.9094 111.421 35.1373 111.421 34.2249H112V39.0739H100.065V39.0739ZM107.49 33.072C107.49 32.5905 107.403 32.1954 107.228 31.8901C107.054 31.5847 106.813 31.3622 106.504 31.2184C106.195 31.0748 105.831 31.003 105.416 31.003H103.723V30.432H105.416C105.831 30.432 106.195 30.3672 106.504 30.2379C106.813 30.1085 107.054 29.8968 107.228 29.6056C107.403 29.3147 107.49 28.9303 107.49 28.4491H108.069V33.072H107.49Z" fill="#27213D"/>
<path fill-rule="evenodd" clip-rule="evenodd" d="M0.262808 3.6608L0.225929 23.0477ZM0.22501 23.4894L0.214867 28.8166ZM0.0118872 23.2618L0.169949 23.264ZM16.7023 23.4894L22.7891 23.5724ZM8.00784 30.7257C10.3707 30.2529 11.2442 27.534 9.65327 25.672C8.94318 24.841 7.81185 24.1521 5.82686 24.4793C2.95961 24.952 1.15836 27.7944 1.28679 30.7257C3.72924 30.7257 5.69066 30.7257 8.00784 30.7257ZM1.32077 31.1675C1.55694 33.3041 2.83883 35.4272 5.50309 36.6563C6.85847 37.2817 8.59913 37.5054 10.2334 37.5488C10.6244 37.5592 11.0189 37.5527 11.4151 37.5264V31.1675H1.32077V31.1675ZM11.4151 30.7257V28.456C11.1082 29.5023 10.2698 30.3253 9.22808 30.7257H11.4151ZM11.8627 37.4881C15.2481 37.1328 18.7189 35.2454 21.2629 29.8653C22.2928 27.6871 22.7359 25.5364 22.8101 23.4894H16.7065H16.7023H11.8627V37.4881ZM11.4151 23.4894H7.79354C9.34492 23.7871 10.2839 24.5675 10.841 25.4214C11.1169 25.8444 11.3041 26.2614 11.4151 26.6657V23.4894ZM22.8204 23.0477C22.836 21.606 22.674 20.2193 22.4118 18.9147C20.591 9.85711 12.7361 2.8746 0.503856 3.64441V23.0477H22.8204V23.0477ZM0.503856 23.4894V27.8815C1.33737 25.6858 3.13954 23.9434 5.41405 23.4894H0.503856ZM0.0561428 3.67484V0.0101181C7.36572 -0.144572 13.4732 1.47486 17.8787 4.84164C23.25 8.94638 26.1125 15.4371 25.8021 21.8128C25.478 28.4716 22.3979 33.988 17.8966 36.9327C12.9591 40.1628 7.34728 39.7415 3.76651 37.2835C0.751746 35.2139 -0.262879 32.3121 0.0561428 29.6938V3.67484V3.67484Z" fill="#27213D"/>
</svg>
