<svg width="24" height="18" viewBox="0 0 24 18" fill="none" xmlns="http://www.w3.org/2000/svg">
<g clip-path="url(#clip0_1603_16888)">
<path d="M15.2444 12.7823H8.75488V1.52985H15.2444V12.7823Z" fill="#6C6BBD"/>
<path d="M9.16716 7.15631C9.16716 4.87366 10.2748 2.84038 11.9998 1.53009C10.7384 0.57193 9.14625 0 7.41619 0C3.32025 0 0 3.20391 0 7.15631C0 11.1086 3.32025 14.3125 7.41619 14.3125C9.14634 14.3125 10.7384 13.7406 11.9998 12.7824C10.2748 11.4722 9.16716 9.43887 9.16716 7.15631Z" fill="#D32011"/>
<path d="M24.0003 7.15631C24.0003 11.1086 20.68 14.3125 16.5841 14.3125C14.8539 14.3125 13.2619 13.7406 12 12.7824C13.7255 11.4722 14.8331 9.43887 14.8331 7.15631C14.8331 4.87366 13.7255 2.84038 12 1.53009C13.2619 0.57193 14.854 0 16.5841 0C20.68 0 24.0003 3.20391 24.0003 7.15631Z" fill="#0099DF"/>
<path d="M17.4403 15.9617C17.5265 15.9617 17.6506 15.9777 17.7454 16.0136L17.6134 16.4031C17.5228 16.3671 17.4322 16.3553 17.3455 16.3553C17.0654 16.3553 16.9253 16.53 16.9253 16.8439V17.9094H16.4967V16.0095H16.9211V16.2402C17.0324 16.0732 17.1932 15.9617 17.4403 15.9617ZM15.8568 16.3871H15.1565V17.2456C15.1565 17.4363 15.2263 17.5636 15.4409 17.5636C15.5522 17.5636 15.6921 17.5277 15.8195 17.4563L15.943 17.8099C15.8073 17.9012 15.5931 17.9573 15.4078 17.9573C14.9009 17.9573 14.7241 17.6947 14.7241 17.2534V16.3871H14.3242V16.0095H14.7241V15.433H15.1565V16.0095H15.8568V16.3871ZM10.373 16.7925C10.4187 16.5182 10.5914 16.3312 10.8965 16.3312C11.1723 16.3312 11.3495 16.4981 11.3948 16.7925H10.373ZM11.84 16.9595C11.8357 16.3671 11.4566 15.9617 10.9044 15.9617C10.3278 15.9617 9.92408 16.3671 9.92408 16.9594C9.92408 17.5632 10.3443 17.9568 10.9337 17.9568C11.2303 17.9568 11.5019 17.8853 11.741 17.6906L11.5307 17.3845C11.3661 17.5118 11.1558 17.5833 10.9582 17.5833C10.6823 17.5833 10.431 17.46 10.3692 17.1184H11.8315C11.8357 17.0664 11.84 17.015 11.84 16.9595H11.84ZM13.7225 16.4945C13.6032 16.4226 13.3603 16.3311 13.109 16.3311C12.8741 16.3311 12.734 16.4149 12.734 16.5541C12.734 16.681 12.8822 16.7169 13.0675 16.7406L13.2694 16.7684C13.698 16.8285 13.9573 17.0032 13.9573 17.3372C13.9573 17.6988 13.6277 17.9572 13.0595 17.9572C12.7379 17.9572 12.4413 17.8776 12.2063 17.7106L12.4083 17.3885C12.5525 17.4959 12.7671 17.5873 13.0637 17.5873C13.3561 17.5873 13.5126 17.5041 13.5126 17.3567C13.5126 17.2498 13.4014 17.1897 13.1665 17.1583L12.9647 17.1306C12.5238 17.0705 12.2847 16.8798 12.2847 16.57C12.2847 16.1924 12.6063 15.9617 13.1047 15.9617C13.4179 15.9617 13.7022 16.0296 13.9078 16.1606L13.7225 16.4945H13.7225ZM19.0063 16.3543C18.9182 16.3543 18.8366 16.3694 18.7607 16.399C18.6872 16.4277 18.6204 16.4704 18.5645 16.5245C18.5082 16.58 18.4639 16.6457 18.4343 16.7179C18.4027 16.793 18.3872 16.8758 18.3872 16.9658C18.3872 17.0564 18.4027 17.1387 18.4343 17.2138C18.4659 17.2889 18.5093 17.3535 18.5645 17.4072C18.6204 17.4613 18.6872 17.504 18.7607 17.5327C18.8366 17.5627 18.9182 17.5773 19.0063 17.5773C19.0944 17.5773 19.1765 17.5628 19.2519 17.5327C19.3258 17.5041 19.3928 17.4614 19.4491 17.4072C19.5052 17.3535 19.5486 17.2889 19.5807 17.2138C19.6123 17.1387 19.6279 17.0564 19.6279 16.9658C19.6279 16.8758 19.6123 16.793 19.5807 16.7179C19.5486 16.6428 19.5052 16.5783 19.4491 16.5245C19.3928 16.4703 19.3258 16.4276 19.252 16.399C19.1739 16.3689 19.0905 16.3537 19.0064 16.3544L19.0063 16.3543ZM19.0063 15.9617C19.1591 15.9617 19.3006 15.9872 19.4307 16.0386C19.5565 16.0869 19.6713 16.1587 19.7684 16.2497C19.864 16.3401 19.9398 16.4481 19.9914 16.5672C20.0451 16.6897 20.072 16.8226 20.072 16.9658C20.072 17.1091 20.0451 17.242 19.9914 17.3644C19.9398 17.4837 19.8639 17.5918 19.7683 17.6824C19.6736 17.772 19.5608 17.8421 19.4308 17.8935C19.3005 17.9445 19.1591 17.97 19.0063 17.97C18.8535 17.97 18.712 17.9445 18.5819 17.8935C18.4518 17.8421 18.34 17.772 18.2457 17.6824C18.1507 17.5916 18.0751 17.4835 18.0235 17.3644C17.9698 17.242 17.9429 17.1091 17.9429 16.9658C17.9429 16.8226 17.9698 16.6897 18.0235 16.5673C18.0752 16.4484 18.1507 16.3404 18.2457 16.2497C18.3422 16.1586 18.4564 16.0868 18.5819 16.0386C18.712 15.9872 18.8535 15.9617 19.0063 15.9617ZM7.87002 16.9594C7.87002 16.6256 8.09689 16.3512 8.46748 16.3512C8.82167 16.3512 9.06073 16.6137 9.06073 16.9595C9.06073 17.3052 8.82167 17.5674 8.46748 17.5674C8.09689 17.5674 7.87002 17.2935 7.87002 16.9595V16.9594ZM9.46442 16.9594V16.0095H9.03617V16.2402C8.89995 16.0691 8.69436 15.9617 8.41423 15.9617C7.86205 15.9617 7.42958 16.3789 7.42958 16.9594C7.42958 17.5396 7.86205 17.9572 8.41423 17.9572C8.69436 17.9572 8.89986 17.8498 9.03617 17.6788V17.9094H9.46442V16.9595V16.9594ZM7.05036 17.9095V16.7171C7.05036 16.268 6.75373 15.9659 6.27608 15.9618C6.02473 15.9578 5.76486 16.0333 5.58383 16.2998C5.44798 16.0892 5.23348 15.9618 4.93264 15.9618C4.72273 15.9618 4.51667 16.0214 4.35589 16.2439V16.0096H3.92773V17.9095H4.36011V16.8563C4.36011 16.5264 4.54967 16.3513 4.84198 16.3513C5.12642 16.3513 5.2707 16.53 5.2707 16.8522V17.9095H5.70317V16.8562C5.70317 16.5263 5.90117 16.3512 6.18505 16.3512C6.47792 16.3512 6.61798 16.53 6.61798 16.8521V17.9095H7.05036Z" fill="#110F0D"/>
</g>
<defs>
<clipPath id="clip0_1603_16888">
<rect width="24" height="18" fill="white"/>
</clipPath>
</defs>
</svg>
