<svg width="21" height="16" viewBox="0 0 21 16" fill="none" xmlns="http://www.w3.org/2000/svg">
<path d="M20.4973 0.868427C20.4966 0.85413 20.4952 0.839878 20.493 0.825735C20.4907 0.813231 20.4871 0.801353 20.4837 0.789307C20.4805 0.776701 20.4766 0.764269 20.472 0.752059C20.4669 0.739776 20.4612 0.727762 20.4548 0.716064C20.4491 0.705126 20.4438 0.694213 20.437 0.683732C20.4289 0.671627 20.42 0.659973 20.4106 0.648822C20.4051 0.642003 20.4009 0.634513 20.3948 0.627981C20.3929 0.625908 20.3905 0.624512 20.3886 0.622488C20.378 0.61206 20.3668 0.602239 20.3551 0.593071C20.3463 0.585794 20.3379 0.577916 20.3287 0.571508C20.3172 0.564093 20.3053 0.557274 20.2931 0.55108C20.2824 0.545225 20.2722 0.53872 20.2611 0.533902C20.2491 0.528697 20.2364 0.525324 20.2239 0.521277C20.2117 0.51735 20.1998 0.51282 20.1873 0.510074C20.1756 0.507496 20.1634 0.506652 20.1513 0.505111C20.1372 0.502927 20.1229 0.50151 20.1086 0.500867C20.1057 0.500795 20.103 0.5 20.1 0.5H0.9C0.89707 0.5 0.894434 0.500771 0.8915 0.500843C0.876634 0.501508 0.861817 0.50298 0.847115 0.505252C0.835689 0.50677 0.824115 0.507541 0.813033 0.509974C0.799714 0.51332 0.786578 0.517341 0.773678 0.52202C0.762154 0.525828 0.750338 0.528911 0.739303 0.533705C0.727389 0.538862 0.716303 0.545825 0.70483 0.552159C0.693648 0.5584 0.68213 0.564038 0.671578 0.571314C0.661959 0.577963 0.653219 0.586107 0.644088 0.593696C0.632689 0.602697 0.621785 0.612291 0.611422 0.622439C0.609469 0.624486 0.607122 0.625884 0.605172 0.62798C0.599117 0.63451 0.594918 0.642002 0.5894 0.648821C0.579954 0.659963 0.571136 0.67161 0.562984 0.683707C0.556246 0.694235 0.550826 0.705173 0.545162 0.716112C0.539062 0.727917 0.532906 0.739577 0.527975 0.752032C0.523189 0.764296 0.519775 0.776777 0.516256 0.789353C0.512887 0.801399 0.509273 0.813253 0.507027 0.825733C0.504799 0.839876 0.503348 0.854128 0.502682 0.868426C0.5021 0.877293 0.5 0.885726 0.5 0.894737V14.3158C0.500355 14.6298 0.626898 14.9308 0.851864 15.1528C1.07683 15.3748 1.38185 15.4997 1.7 15.5H19.3C19.6182 15.4997 19.9232 15.3748 20.1481 15.1528C20.3731 14.9308 20.4996 14.6298 20.5 14.3158V0.894737C20.5 0.885726 20.4979 0.877293 20.4973 0.868427ZM19.0716 1.28947L10.5 9.04346L1.92837 1.28947H19.0716ZM19.3 14.7105H1.7C1.59395 14.7104 1.49227 14.6688 1.41728 14.5948C1.34229 14.5208 1.30011 14.4204 1.3 14.3158V1.7921L10.2297 9.86994C10.3035 9.93667 10.3999 9.97368 10.5 9.97368C10.6001 9.97368 10.6965 9.93667 10.7703 9.86994L19.7 1.7921V14.3158C19.6999 14.4204 19.6577 14.5208 19.5827 14.5948C19.5077 14.6688 19.4061 14.7104 19.3 14.7105Z" fill="#343434" stroke="#343434" stroke-width="0.4"/>
</svg>
