<svg width="24" height="18" viewBox="0 0 24 18" fill="none" xmlns="http://www.w3.org/2000/svg">
<g clip-path="url(#clip0_1603_16894)">
<path d="M4.36274 17.9106V16.7192C4.36274 16.2624 4.07455 15.9647 3.58059 15.9647C3.33365 15.9647 3.06609 16.0441 2.88084 16.3022C2.73684 16.0838 2.53105 15.9647 2.22234 15.9647C2.01646 15.9647 1.81077 16.0242 1.64605 16.2426V16.0044H1.21387V17.9106H1.64605V16.8581C1.64605 16.5207 1.8313 16.3617 2.11949 16.3617C2.40749 16.3617 2.55168 16.5405 2.55168 16.8581V17.9106H2.98387V16.8581C2.98387 16.5207 3.18955 16.3617 3.45712 16.3617C3.74531 16.3617 3.88931 16.5405 3.88931 16.8581V17.9106H4.36274ZM10.7631 16.0044H10.0635V15.4286H9.6313V16.0044H9.24027V16.3816H9.63121V17.2553C9.63121 17.6922 9.81646 17.9503 10.3104 17.9503C10.4957 17.9503 10.7014 17.8908 10.8456 17.8113L10.722 17.4539C10.5985 17.5333 10.4545 17.5532 10.3516 17.5532C10.1458 17.5532 10.0635 17.4341 10.0635 17.2354V16.3816H10.7631V16.0044ZM14.4265 15.9646C14.1796 15.9646 14.015 16.0838 13.912 16.2426V16.0044H13.4798V17.9106H13.912V16.8383C13.912 16.5207 14.056 16.3419 14.3236 16.3419C14.4059 16.3419 14.5088 16.3618 14.5912 16.3816L14.7146 15.9846C14.6323 15.9647 14.5088 15.9647 14.4265 15.9647V15.9646ZM8.8904 16.1632C8.68452 16.0242 8.39643 15.9647 8.08771 15.9647C7.59384 15.9647 7.26459 16.2029 7.26459 16.5802C7.26459 16.8979 7.51152 17.0766 7.94371 17.1362L8.14949 17.1561C8.3759 17.1957 8.49937 17.2553 8.49937 17.3546C8.49937 17.4936 8.33474 17.5929 8.04656 17.5929C7.75846 17.5929 7.53205 17.4936 7.38796 17.3943L7.18218 17.712C7.40859 17.8709 7.71731 17.9503 8.02593 17.9503C8.60221 17.9503 8.93156 17.6922 8.93156 17.3347C8.93156 16.9972 8.66399 16.8184 8.25234 16.7589L8.04656 16.739C7.86131 16.7191 7.7173 16.6795 7.7173 16.5604C7.7173 16.4214 7.86131 16.3419 8.08771 16.3419C8.33474 16.3419 8.58168 16.4412 8.70515 16.5008L8.8904 16.1632ZM20.3743 15.9647C20.1273 15.9647 19.9627 16.0838 19.8597 16.2426V16.0044H19.4275V17.9106H19.8597V16.8383C19.8597 16.5207 20.0038 16.3419 20.2713 16.3419C20.3537 16.3419 20.4566 16.3618 20.5389 16.3816L20.6624 15.9846C20.5801 15.9647 20.4566 15.9647 20.3743 15.9647ZM14.8587 16.9575C14.8587 17.5333 15.2703 17.9503 15.9083 17.9503C16.1964 17.9503 16.4022 17.8908 16.608 17.7319L16.4022 17.3943C16.2376 17.5135 16.073 17.573 15.8877 17.573C15.5378 17.573 15.2909 17.3347 15.2909 16.9575C15.2909 16.6001 15.5378 16.3617 15.8877 16.3419C16.073 16.3419 16.2376 16.4015 16.4022 16.5207L16.608 16.1831C16.4022 16.0242 16.1964 15.9647 15.9083 15.9647C15.2703 15.9647 14.8587 16.3816 14.8587 16.9575ZM18.8513 16.9575V16.0044H18.4192V16.2426C18.2751 16.064 18.0693 15.9647 17.8017 15.9647C17.2461 15.9647 16.8139 16.3816 16.8139 16.9575C16.8139 17.5333 17.2461 17.9503 17.8017 17.9503C18.0898 17.9503 18.2957 17.851 18.4192 17.6723V17.9106H18.8513V16.9575ZM17.2666 16.9575C17.2666 16.6199 17.493 16.3419 17.8634 16.3419C18.2133 16.3419 18.4603 16.6001 18.4603 16.9575C18.4603 17.295 18.2133 17.573 17.8634 17.573C17.493 17.5531 17.2666 17.295 17.2666 16.9575ZM12.101 15.9647C11.5247 15.9647 11.113 16.3617 11.113 16.9575C11.113 17.5532 11.5246 17.9503 12.1215 17.9503C12.4096 17.9503 12.6978 17.8709 12.9242 17.6922L12.7183 17.3943C12.5537 17.5135 12.3479 17.5929 12.1421 17.5929C11.8746 17.5929 11.607 17.4738 11.5452 17.1361H13.0065V16.9774C13.0271 16.3617 12.6566 15.9647 12.1009 15.9647H12.101ZM12.101 16.322C12.3684 16.322 12.5538 16.481 12.5948 16.7788H11.5658C11.607 16.5207 11.7922 16.322 12.101 16.322ZM22.8233 16.9575V15.2498H22.3912V16.2426C22.2471 16.064 22.0413 15.9647 21.7737 15.9647C21.2181 15.9647 20.7859 16.3816 20.7859 16.9575C20.7859 17.5333 21.2181 17.9503 21.7737 17.9503C22.0619 17.9503 22.2677 17.851 22.3912 17.6723V17.9106H22.8233V16.9575ZM21.2387 16.9575C21.2387 16.6199 21.465 16.3419 21.8355 16.3419C22.1854 16.3419 22.4323 16.6001 22.4323 16.9575C22.4323 17.295 22.1854 17.573 21.8355 17.573C21.465 17.5531 21.2387 17.295 21.2387 16.9575ZM6.79115 16.9575V16.0044H6.35896V16.2426C6.21487 16.064 6.00909 15.9647 5.74152 15.9647C5.18587 15.9647 4.75368 16.3816 4.75368 16.9575C4.75368 17.5333 5.18587 17.9503 5.74152 17.9503C6.02971 17.9503 6.23549 17.851 6.35896 17.6723V17.9106H6.79115V16.9575ZM5.18587 16.9575C5.18587 16.6199 5.41227 16.3419 5.78268 16.3419C6.13256 16.3419 6.37959 16.6001 6.37959 16.9575C6.37959 17.295 6.13256 17.573 5.78268 17.573C5.41227 17.5531 5.18587 17.295 5.18587 16.9575Z" fill="black"/>
<path d="M8.74707 1.52893H15.2299V12.7677H8.74707V1.52893Z" fill="#FF5F00"/>
<path d="M9.15834 7.14835C9.15834 4.86488 10.2697 2.83948 11.9778 1.52891C10.7225 0.575819 9.13781 0 7.40906 0C3.31341 0 0 3.19685 0 7.14835C0 11.0998 3.31341 14.2967 7.40897 14.2967C9.13772 14.2967 10.7224 13.7209 11.9778 12.7677C10.2697 11.477 9.15834 9.43182 9.15834 7.14835Z" fill="#EB001B"/>
<path d="M23.9758 7.14835C23.9758 11.0998 20.6624 14.2967 16.5669 14.2967C14.8381 14.2967 13.2535 13.7209 11.998 12.7677C13.7268 11.4572 14.8176 9.43182 14.8176 7.14835C14.8176 4.86488 13.7062 2.83948 11.998 1.52891C13.2534 0.575819 14.8381 0 16.5669 0C20.6624 0 23.9759 3.21675 23.9759 7.14835H23.9758Z" fill="#F79E1B"/>
</g>
<defs>
<clipPath id="clip0_1603_16894">
<rect width="24" height="18" fill="white"/>
</clipPath>
</defs>
</svg>
