<svg width="13" height="24" viewBox="0 0 13 24" fill="none" xmlns="http://www.w3.org/2000/svg">
<path d="M0.652005 2.00409L10.396 12.0001L0.652005 21.9961C0.47756 22.1747 0.379899 22.4144 0.379899 22.6641C0.379899 22.9137 0.47756 23.1535 0.652005 23.3321C0.736734 23.4186 0.837865 23.4873 0.949477 23.5342C1.06109 23.5811 1.18094 23.6052 1.302 23.6052C1.42307 23.6052 1.54292 23.5811 1.65453 23.5342C1.76614 23.4873 1.86728 23.4186 1.952 23.3321L12.32 12.6981C12.502 12.5113 12.6039 12.2609 12.6039 12.0001C12.6039 11.7393 12.502 11.4888 12.32 11.3021L1.95401 0.668089C1.86921 0.581001 1.76783 0.511784 1.65585 0.464521C1.54387 0.417257 1.42355 0.39291 1.302 0.39291C1.18046 0.39291 1.06014 0.417257 0.948158 0.464521C0.836176 0.511784 0.734796 0.581001 0.650004 0.668089C0.47556 0.846684 0.377899 1.08644 0.377899 1.33609C0.377899 1.58574 0.47556 1.82549 0.650004 2.00409H0.652005Z" fill="#BEBDC5"/>
</svg>
