<svg width="28" height="24" viewBox="0 0 28 24" fill="none" xmlns="http://www.w3.org/2000/svg">
<path d="M13.9998 24L13.5292 23.596C3.4116 15.1111 0.666504 12.1212 0.666504 7.27273C0.666504 3.23232 3.80376 0 7.72533 0C10.941 0 12.7449 1.85859 13.9998 3.31313C15.2547 1.85859 17.0587 0 20.2743 0C24.1959 0 27.3332 3.23232 27.3332 7.27273C27.3332 12.1212 24.5881 15.1111 14.4704 23.596L13.9998 24ZM7.72533 1.61616C4.6665 1.61616 2.23513 4.12121 2.23513 7.27273C2.23513 11.3939 4.74494 14.1414 13.9998 21.899C23.2547 14.1414 25.7645 11.3939 25.7645 7.27273C25.7645 4.12121 23.3332 1.61616 20.2743 1.61616C17.5292 1.61616 16.0391 3.31313 14.8626 4.68687L13.9998 5.73737L13.1371 4.68687C11.9606 3.31313 10.4704 1.61616 7.72533 1.61616Z" fill="#27213D" fill-opacity="0.5"/>
</svg>
