<svg width="16" height="17" viewBox="0 0 16 17" fill="none" xmlns="http://www.w3.org/2000/svg">
<path d="M14.0071 16.5003H13.9036C1.94162 15.8122 0.243211 5.71539 0.00579824 2.63398C-0.0133316 2.3944 0.0149835 2.15339 0.0891209 1.92477C0.163258 1.69616 0.281761 1.48442 0.437839 1.3017C0.593917 1.11897 0.784503 0.968853 0.998676 0.859939C1.21285 0.751025 1.4464 0.685457 1.68595 0.666993H5.04016C5.284 0.666757 5.52229 0.739771 5.72417 0.876578C5.92605 1.01339 6.08222 1.20768 6.17244 1.4343L7.09774 3.71186C7.18683 3.93325 7.20894 4.17595 7.16132 4.4098C7.1137 4.64366 6.99845 4.85836 6.82989 5.02725L5.53325 6.33654C5.73579 7.48796 6.28699 8.54935 7.11228 9.37713C7.93757 10.2049 8.99712 10.7591 10.1476 10.9647L11.4686 9.65545C11.6399 9.48869 11.8566 9.37609 12.0915 9.33169C12.3264 9.28728 12.5692 9.31305 12.7896 9.40577L15.0845 10.3253C15.3077 10.4184 15.498 10.5759 15.6314 10.7776C15.7647 10.9793 15.835 11.2162 15.8333 11.458V14.6734C15.8333 15.1579 15.6409 15.6226 15.2984 15.9652C14.9559 16.3078 14.4914 16.5003 14.0071 16.5003ZM1.83205 1.88494C1.6706 1.88494 1.51576 1.9491 1.4016 2.06331C1.28743 2.17751 1.2233 2.33241 1.2233 2.49392V2.54263C1.50332 6.14776 3.29914 14.6734 13.9705 15.2824C14.0505 15.2873 14.1307 15.2764 14.2064 15.2503C14.2822 15.2242 14.352 15.1834 14.412 15.1302C14.4719 15.077 14.5208 15.0125 14.5558 14.9404C14.5907 14.8683 14.6111 14.79 14.6158 14.7099V11.458L12.3208 10.5385L10.5737 12.274L10.2815 12.2375C4.98537 11.5737 4.26705 6.27565 4.26705 6.22084L4.23052 5.92853L5.95938 4.18077L5.04625 1.88494H1.83205Z" fill="#343434"/>
</svg>
