<svg width="23" height="23" viewBox="0 0 23 23" fill="none" xmlns="http://www.w3.org/2000/svg">
<path d="M20.1099 22.5007H19.965C3.21827 21.5373 0.840495 7.40174 0.508118 3.08777C0.481336 2.75235 0.520977 2.41494 0.624769 2.09488C0.728562 1.77482 0.894465 1.47838 1.11297 1.22257C1.33148 0.966758 1.5983 0.75659 1.89815 0.60411C2.19799 0.451631 2.52496 0.359836 2.86033 0.333985H7.55623C7.8976 0.333655 8.23121 0.435875 8.51384 0.627405C8.79647 0.818935 9.0151 1.09095 9.14141 1.40822L10.4368 4.59681C10.5616 4.90675 10.5925 5.24653 10.5258 5.57392C10.4592 5.90132 10.2978 6.2019 10.0618 6.43834L8.24655 8.27136C8.53011 9.88334 9.30179 11.3693 10.4572 12.5282C11.6126 13.6871 13.096 14.4629 14.7066 14.7508L16.556 12.9178C16.7959 12.6844 17.0992 12.5267 17.4281 12.4646C17.757 12.4024 18.0969 12.4385 18.4054 12.5683L21.6184 13.8557C21.9307 13.986 22.1972 14.2064 22.3839 14.4888C22.5706 14.7712 22.669 15.1029 22.6666 15.4414V19.943C22.6666 20.6213 22.3973 21.2719 21.9178 21.7515C21.4383 22.2312 20.788 22.5007 20.1099 22.5007ZM3.06487 2.03911C2.83884 2.03911 2.62206 2.12894 2.46224 2.28882C2.30241 2.44871 2.21262 2.66556 2.21262 2.89168V2.95988C2.60465 8.00706 5.11879 19.943 20.0587 20.7955C20.1707 20.8024 20.2829 20.7872 20.389 20.7506C20.495 20.7141 20.5928 20.6569 20.6768 20.5825C20.7607 20.508 20.8291 20.4177 20.8781 20.3167C20.927 20.2158 20.9556 20.1061 20.9621 19.9941V15.4414L17.7491 14.154L15.3032 16.5839L14.8941 16.5327C7.47952 15.6034 6.47387 8.1861 6.47387 8.10937L6.42273 7.70014L8.84313 5.25328L7.56475 2.03911H3.06487Z" fill="#202020"/>
</svg>
