<svg width="13" height="24" viewBox="0 0 13 24" fill="none" xmlns="http://www.w3.org/2000/svg">
<path d="M11.952 21.6011L2.20797 11.6051L11.952 1.60913C12.1264 1.43054 12.2241 1.19079 12.2241 0.941133C12.2241 0.691478 12.1264 0.451728 11.952 0.273133C11.8672 0.186657 11.7661 0.117957 11.6545 0.0710573C11.5429 0.0241573 11.423 0 11.302 0C11.1809 0 11.0611 0.0241573 10.9494 0.0710573C10.8378 0.117957 10.7367 0.186657 10.652 0.273133L0.28397 10.9071C0.101942 11.0939 6.67572e-05 11.3443 6.67572e-05 11.6051C6.67572e-05 11.8659 0.101942 12.1164 0.28397 12.3031L10.65 22.9371C10.7348 23.0242 10.8361 23.0934 10.9481 23.1407C11.0601 23.188 11.1804 23.2123 11.302 23.2123C11.4235 23.2123 11.5438 23.188 11.6558 23.1407C11.7678 23.0934 11.8692 23.0242 11.954 22.9371C12.1284 22.7585 12.2261 22.5188 12.2261 22.2691C12.2261 22.0195 12.1284 21.7797 11.954 21.6011H11.952Z" fill="#BEBDC5"/>
</svg>
