<svg width="5" height="12" viewBox="0 0 5 12" fill="none" xmlns="http://www.w3.org/2000/svg">
<path d="M0.1121 0.832927L4.09705 6.00053L0.1121 11.1681C0.0407579 11.2605 0.000817869 11.3844 0.000817869 11.5135C0.000817869 11.6425 0.0407579 11.7665 0.1121 11.8588C0.14675 11.9035 0.188109 11.939 0.233755 11.9633C0.2794 11.9875 0.328415 12 0.377926 12C0.427438 12 0.476451 11.9875 0.522097 11.9633C0.567742 11.939 0.609102 11.9035 0.643753 11.8588L4.88389 6.36137C4.95834 6.26483 5 6.13535 5 6.00053C5 5.86571 4.95834 5.73623 4.88389 5.63969L0.644571 0.142259C0.609894 0.0972376 0.568433 0.0614548 0.522636 0.0370207C0.47684 0.0125875 0.427635 0 0.377926 0C0.328218 0 0.279012 0.0125875 0.233216 0.0370207C0.187419 0.0614548 0.145958 0.0972376 0.111281 0.142259C0.0399396 0.234587 0 0.35853 0 0.487594C0 0.616656 0.0399396 0.740599 0.111281 0.832927H0.1121Z" fill="#636363"/>
</svg>
