<svg width="30" height="26" viewBox="0 0 30 26" fill="none" xmlns="http://www.w3.org/2000/svg">
<path d="M26.1546 7.08156V7.87406C26.1546 15.8545 20.373 25 9.79351 25C6.67033 25.007 3.61348 24.0566 1 22.2658C1.45388 22.3304 1.91172 22.3595 2.36973 22.353C4.9586 22.3605 7.47467 21.4561 9.51351 19.7853C8.31078 19.7668 7.14423 19.3517 6.17967 18.5991C5.2151 17.8464 4.50159 16.7946 4.14054 15.593C4.4988 15.6725 4.86405 15.7124 5.23027 15.7119C5.74166 15.712 6.25073 15.64 6.74378 15.4979C5.44109 15.2259 4.26913 14.4884 3.42843 13.4113C2.58773 12.3343 2.13056 10.9848 2.13514 9.59379V9.51454C2.93215 9.98078 3.82571 10.2365 4.73838 10.2595C3.52348 9.42226 2.6597 8.13082 2.32354 6.64902C1.98738 5.16723 2.20421 3.60694 2.92973 2.28695C4.37533 4.14892 6.17893 5.67144 8.22328 6.75555C10.2676 7.83965 12.507 8.46107 14.7957 8.57939C14.6824 8.12958 14.6289 7.66556 14.6368 7.20044C14.5941 5.9712 14.9143 4.75808 15.5537 3.72625C16.1931 2.69442 17.1206 1.89404 18.21 1.43408C19.2994 0.974113 20.4976 0.876925 21.6416 1.15575C22.7856 1.43457 23.8198 2.07585 24.6032 2.99227C25.8911 2.7201 27.1265 2.22458 28.2584 1.52615C27.8291 2.9458 26.9159 4.15035 25.693 4.91012C26.8354 4.74527 27.9492 4.40897 29 3.91157C28.2384 5.13649 27.275 6.20985 26.1546 7.08156V7.08156Z" stroke="#343434" stroke-width="1.3" stroke-linecap="round" stroke-linejoin="round"/>
</svg>
