<svg width="32" height="10" viewBox="0 0 32 10" fill="none" xmlns="http://www.w3.org/2000/svg">
<g clip-path="url(#clip0_1603_16900)">
<path d="M16.5496 3.18412C16.5314 4.57159 17.8325 5.3458 18.8126 5.80617C19.8196 6.27846 20.1579 6.58135 20.1539 7.00376C20.1464 7.65014 19.3506 7.93544 18.606 7.94653C17.3069 7.96593 16.5515 7.60846 15.951 7.33809L15.483 9.44882C16.0855 9.71641 17.2011 9.94978 18.358 9.96002C21.0736 9.96002 22.8503 8.66797 22.8599 6.66472C22.8705 4.12231 19.2114 3.98159 19.2364 2.8452C19.245 2.50062 19.5861 2.13291 20.3336 2.03942C20.7036 1.99219 21.725 1.95605 22.883 2.47002L23.3375 0.427854C22.7148 0.209299 21.9144 2.19345e-05 20.9179 2.19345e-05C18.3619 2.19345e-05 16.5641 1.30966 16.5496 3.18412ZM27.7048 0.175925C27.2089 0.175925 26.791 0.45472 26.6045 0.882551L22.7254 9.81002H25.439L25.979 8.37159H29.295L29.6082 9.81002H32L29.9129 0.175925H27.7048ZM28.0844 2.77846L28.8675 6.39617H26.7227L28.0844 2.77846ZM13.2595 0.176045L11.1205 9.8099H13.7064L15.8444 0.175805H13.2595M9.43412 0.175805L6.74263 6.73327L5.65387 1.15773C5.52612 0.535323 5.02163 0.175925 4.46138 0.175925H0.061625L0 0.455685C0.90325 0.6446 1.9295 0.949299 2.55125 1.27532C2.93175 1.47448 3.04025 1.64858 3.16525 2.12183L5.22738 9.81002H7.96L12.1495 0.175925H9.43412" fill="url(#paint0_linear_1603_16900)"/>
</g>
<defs>
<linearGradient id="paint0_linear_1603_16900" x1="14.7117" y1="10.1598" x2="14.9896" y2="-0.0698227" gradientUnits="userSpaceOnUse">
<stop stop-color="#222357"/>
<stop offset="1" stop-color="#254AA5"/>
</linearGradient>
<clipPath id="clip0_1603_16900">
<rect width="32" height="10" fill="white"/>
</clipPath>
</defs>
</svg>
