<svg width="24" height="24" viewBox="0 0 24 24" fill="none" xmlns="http://www.w3.org/2000/svg">
<path d="M22.0911 11.8984C22.0965 9.22769 20.9372 6.72265 19.0565 4.83653C17.1735 2.94806 14.6676 1.90893 12 1.90893C6.49124 1.90893 2.01071 6.38938 2.01071 11.8929C2.01071 13.7811 2.53558 15.6157 3.53679 17.2068L3.7491 17.5446L2.76425 21.1504L2.71864 21.3174L2.88608 21.2735L6.58477 20.3038L6.90767 20.4966L6.90788 20.4967C8.4395 21.4059 10.1982 21.8875 11.9946 21.8875C17.4966 21.8875 22.091 17.4086 22.0911 11.8984ZM22.0911 11.8984L21.9911 11.8982H22.0911C22.0911 11.8983 22.0911 11.8983 22.0911 11.8984ZM17.372 14.4737L17.3707 14.4731C17.2243 14.3985 16.7858 14.1819 16.3495 13.9718C15.9099 13.7601 15.4824 13.5598 15.3524 13.5139L15.3508 13.5134C15.2115 13.4615 15.1155 13.4338 15.0344 13.4433C14.9642 13.4515 14.8881 13.4906 14.7995 13.6248C14.5969 13.9314 14.0241 14.6011 13.8489 14.8029L17.372 14.4737ZM17.372 14.4737C17.4233 14.4989 17.4704 14.5214 17.5139 14.5422C17.5999 14.5832 17.6716 14.6175 17.7326 14.6519C17.8243 14.7035 17.8691 14.7438 17.8899 14.7836L17.8897 14.7837L17.8932 14.7895C17.8986 14.7985 17.9118 14.8376 17.9184 14.9205C17.9246 14.9977 17.9241 15.0997 17.9138 15.2212C17.893 15.4639 17.8332 15.7783 17.7129 16.1184C17.6012 16.4341 17.2676 16.751 16.8739 17.0038C16.4826 17.255 16.0569 17.427 15.789 17.4671C15.3255 17.5356 14.9166 17.5523 14.3918 17.4531C13.8641 17.3533 13.2158 17.1357 12.2754 16.7297C9.5272 15.5406 7.66694 12.8846 7.29518 12.3539C7.26774 12.3147 7.24841 12.2871 7.23743 12.2725C7.2338 12.2675 7.22961 12.2618 7.22489 12.2554C7.1349 12.1327 6.85281 11.7482 6.58673 11.2235C6.30535 10.6687 6.04643 9.96588 6.04643 9.25714C6.04643 7.93053 6.6918 7.23884 6.99953 6.90902C7.02127 6.88573 7.04132 6.86423 7.05935 6.84445C7.31053 6.57377 7.60345 6.50714 7.77857 6.50714C7.97764 6.50714 8.1725 6.50718 8.34019 6.51766L8.34056 6.51768C8.36575 6.51917 8.39152 6.51912 8.41454 6.51908L8.41778 6.51907C8.44266 6.51903 8.46538 6.51906 8.48827 6.52037C8.53303 6.52294 8.57482 6.53032 8.61678 6.54995C8.69906 6.58845 8.8077 6.68668 8.92376 6.96525C8.99651 7.14078 9.09951 7.39175 9.21059 7.66238C9.28762 7.85005 9.36853 8.04718 9.44592 8.23517C9.6335 8.6908 9.80305 9.09935 9.8427 9.17865C9.91125 9.31575 9.94579 9.45157 9.86924 9.60935C9.62369 10.1003 9.37193 10.3637 9.1878 10.5564C9.16471 10.5806 9.14267 10.6036 9.12185 10.6259C9.03077 10.7232 8.94725 10.8202 8.91677 10.9359C8.88408 11.0601 8.9163 11.1844 8.99927 11.3271L8.99931 11.3271M17.372 14.4737L8.99931 11.3271M8.99931 11.3271C9.58036 12.3244 10.1624 12.9997 10.822 13.5361C11.48 14.0712 12.2118 14.465 13.0854 14.9018M8.99931 11.3271L13.0854 14.9018M13.0854 14.9018C13.2397 14.9803 13.379 15.0211 13.5103 15.0048C13.6456 14.988 13.7533 14.9134 13.8487 14.8031L13.0854 14.9018ZM1.78395 17.8657L1.79496 17.8255L1.77417 17.7894C0.743649 15.9993 0.201786 13.9701 0.201786 11.8929C0.201786 5.39094 5.49273 0.1 11.9946 0.1C15.1449 0.1 18.1087 1.32697 20.3346 3.55813C22.5623 5.79119 23.9 8.75036 23.9 11.8982C23.9 18.3989 18.4925 23.6911 11.9946 23.6911H11.9893C10.0131 23.6911 8.07422 23.197 6.3533 22.2569L6.31841 22.2378L6.27996 22.2479L0.142231 23.8593L1.78395 17.8657Z" fill="#202020" stroke="white" stroke-width="0.2"/>
</svg>
